<svg width="21" height="22" viewBox="0 0 21 22" fill="none" xmlns="http://www.w3.org/2000/svg">
<path fill-rule="evenodd" clip-rule="evenodd" d="M0.209595 11.0769C0.209595 5.54472 4.75563 0.871796 10.1376 0.871796C15.5196 0.871796 20.0656 5.54472 20.0656 11.0769C20.0656 14.3324 18.4851 17.2796 16.0944 19.1635V19.241H15.9931C14.3371 20.5116 12.3088 21.282 10.1376 21.282C7.96634 21.282 5.93805 20.5116 4.28206 19.241H4.18079V19.1635C1.79013 17.2796 0.209595 14.3313 0.209595 11.0769ZM7.28177 16.4203C6.75367 16.857 6.38617 17.4657 6.23986 18.146C7.39945 18.8369 8.73179 19.241 10.1376 19.241C11.5434 19.241 12.8757 18.8369 14.0353 18.146C13.8889 17.4658 13.5213 16.8572 12.9932 16.4205C12.4652 15.9838 11.8081 15.7451 11.1304 15.7437H9.14479C8.46701 15.7449 7.80987 15.9836 7.28177 16.4203ZM13.8782 14.5586C14.6923 15.1155 15.3285 15.9069 15.7072 16.8336C17.1636 15.3447 18.08 13.2976 18.08 11.0769C18.08 6.65096 14.4434 2.91282 10.1376 2.91282C5.83182 2.91282 2.19519 6.65096 2.19519 11.0769C2.19519 13.2976 3.11155 15.3447 4.56799 16.8336C4.94668 15.9069 5.5829 15.1155 6.39699 14.5586C7.21109 14.0017 8.1669 13.704 9.14479 13.7027H11.1304C12.1083 13.704 13.0641 14.0017 13.8782 14.5586ZM6.1664 9.0359C6.1664 6.70913 7.87402 4.95385 10.1376 4.95385C12.4012 4.95385 14.1088 6.70913 14.1088 9.0359C14.1088 11.3627 12.4012 13.1179 10.1376 13.1179C7.87402 13.1179 6.1664 11.3627 6.1664 9.0359ZM8.152 9.0359C8.152 10.2381 8.96808 11.0769 10.1376 11.0769C11.3071 11.0769 12.1232 10.2381 12.1232 9.0359C12.1232 7.83373 11.3071 6.99487 10.1376 6.99487C8.96808 6.99487 8.152 7.83373 8.152 9.0359Z" fill="#9B9B9B"/>
</svg>
